# xmcd
# 
# Track frame offsets:
#     150
#     21140
#     35769
#     59040
#     75228
#     88899
#     109844
#     121818
#     136570
#     150564
#     164142
#     178519
#     191532
#     203055
#     218377
#     233783
#     248327
#     269627
#     287084
# 
# Disc length: 4012
# 
# Revision: 2
# Processed by: cddbd v1.5.2PL0 Copyright (c) Steve Scherf et al.
# Submitted via: fre:ac v1.0.31
# 
DISCID=020faa13
DTITLE=Various Artist - RCA SWING!100 CD2 スタンダードⅡ
DYEAR=0
DGENRE=Jazz
TTITLE0=デューク・エリントン楽団 - A列車で行こう
TTITLE1=デューク・エリントン楽団 - パーディド
TTITLE2=デューク・エリントン楽団 - ムード・インディゴ
TTITLE3=デューク・エリントン楽団 - ソリチュード
TTITLE4=デューク・エリントン楽団 - ソフィスティケイテッド・レディ
TTITLE5=デューク・エリントン楽団 - チェルシー・ブリッジ
TTITLE6=デューク・エリントン楽団 - イン・ア・メロウ・トーン
TTITLE7=デューク・エリントン楽団 - ドント・ゲット・アラウンド・マッチ・エニー・モア
TTITLE8=デューク・エリントン楽団 - 昔は良かったね
TTITLE9=デューク・エリントン楽団 - スウィングしなけりゃ意味がない
TTITLE10=デューク・エリントン楽団 - コットン・テイル
TTITLE11=デューク・エリントン楽団 - ロッキン・イン・リズム
TTITLE12=デューク・エリントン楽団 - サテン・ドール
TTITLE13=カウント・ベイシー楽団 - モーテン・スウィング
TTITLE14=カウント・ベイシー楽団 - ワン・オクロック・ブギー
TTITLE15=カウント・ベイシー楽団 - スウィンギン・ザ・ブルース
TTITLE16=ルイ・アームストロング楽団 - 表通りで
TTITLE17=ルイ・アームストロング楽団 - 浮気はやめた
TTITLE18=ディジー・ガレスピー楽団 - マンテカ
EXTD=
EXTT0=
EXTT1=
EXTT2=
EXTT3=
EXTT4=
EXTT5=
EXTT6=
EXTT7=
EXTT8=
EXTT9=
EXTT10=
EXTT11=
EXTT12=
EXTT13=
EXTT14=
EXTT15=
EXTT16=
EXTT17=
EXTT18=
PLAYORDER=
